# xmcd
#
# Track frame offsets:
#	150
#	27915
#	48012
#	73673
#	89420
#	110522
#	131185
#	160370
#	186250
#	212054
#	235446
#	258437
#	282419
#
# Disc length: 4181 seconds
#
# Revision: 0
# Processed by: cddbd v1.5.2PL0 Copyright (c) Steve Scherf et al.
# Submitted via: EasyCDDAExtractor 11.0.3.1
#
DISCID=c310530d
DTITLE=Yolanda Adams - The Essential Yolanda Adams - Disc 2
DYEAR=2006
DGENRE=Gospel
TTITLE0=Thank You
TTITLE1=Only Believe
TTITLE2=Still I Rise
TTITLE3=Before I Tell Them
TTITLE4=My Everything
TTITLE5=Praise Your Holy Name
TTITLE6=The Battle Is the Lord's (Live)
TTITLE7=I'm Free
TTITLE8=Is Your All On The Alter?
TTITLE9=Lord, I Want To Be A Christian
TTITLE10=Take Away
TTITLE11=I'll Always Remember
TTITLE12=Finale: The Lord Is With Us In This Place (Live)
EXTD=
EXTT0=
EXTT1=
EXTT2=
EXTT3=
EXTT4=
EXTT5=
EXTT6=
EXTT7=
EXTT8=
EXTT9=
EXTT10=
EXTT11=
EXTT12=
PLAYORDER=
